PathFileType	4	(X/Y/Z)	/Users/niels/Desktop/University/Third Semester/Perception and Action/Exam/Gymnastics Motion Tracking/Code for Gym Tracking/Analyzed Data/Webcam_Backflip/id20_1_baseline_Sports2D/id20_1_baseline_Sports2D_px_person00.trc
DataRate	CameraRate	NumFrames	NumMarkers	Units	OrigDataRate	OrigDataStartFrame	OrigNumFrames
29.71698113207547	29.71698113207547	14	22	m	29.71698113207547	0	106
Frame#	Time	Hip			RHip			RKnee			RAnkle			RBigToe			RSmallToe			RHeel			LHip			LKnee			LAnkle			LBigToe			LSmallToe			LHeel			Neck			Head			Nose			RShoulder			RElbow			RWrist			LShoulder			LElbow			LWrist		
		X1	Y1	Z1	X2	Y2	Z2	X3	Y3	Z3	X4	Y4	Z4	X5	Y5	Z5	X6	Y6	Z6	X7	Y7	Z7	X8	Y8	Z8	X9	Y9	Z9	X10	Y10	Z10	X11	Y11	Z11	X12	Y12	Z12	X13	Y13	Z13	X14	Y14	Z14	X15	Y15	Z15	X16	Y16	Z16	X17	Y17	Z17	X18	Y18	Z18	X19	Y19	Z19	X20	Y20	Z20	X21	Y21	Z21	X22	Y22	Z22
0	0.0	0.8132373639795771	-1.0952136169702953	0.0	0.7318697649087617	-1.045302480834101	0.0	1.6452395152917831	-0.8958544721242501	0.0	1.5437197265624998	-1.0645751953125	0.0	1.157537109375	-0.19354101562500006	0.0	1.1474882812499998	-0.213638671875	0.0			0.0	1.216842111085027	-1.0305769859480303	0.0	0.9598282446927807	-2.7930268247743038	0.0	0.6785605468750031	-1.0650605468750003	0.0			0.0	1.4646240234375	-0.6392470703125	0.0			0.0	1.008025840491903	-0.9237037308810259	0.0	0.9834973806438473	-0.555098663795578	0.0	0.9834587593402416	-0.7271455634754261	0.0	0.7315905762941606	-1.021993435122648	0.0	0.3195617183791188	-0.917890558835405	0.0	0.22771072785701826	-0.4701062829200456	0.0	1.3212981188198474	-0.997601397466998	0.0	1.7081103387049688	-0.9058500170821037	0.0	1.7760699958135722	-0.463216796564838	0.0
1	0.033650793650793646	0.8273358758638136	-1.0919472217492312	0.0	0.7318676725885085	-1.0453143864759498	0.0	1.6449207710972753	-0.8958743868769168	0.0	1.5437197265624998	-1.0645751953125	0.0	1.157537109375	-0.19354101562500006	0.0	1.1474882812499998	-0.213638671875	0.0			0.0	1.21688828400799	-1.0305769909132672	0.0	1.0168851171947646	-2.6089112824406007	0.0	0.6785605468749997	-1.0650605468749996	0.0			0.0	1.4646240234375	-0.6392470703125	0.0			0.0	1.0035773266690082	-0.9234238804046311	0.0	0.9799687374535037	-0.5557452605572494	0.0	0.9831143922937557	-0.7276036141672341	0.0	0.7231569614600188	-1.0238930298121294	0.0	0.33469331862262436	-0.8716877203202749	0.0	0.2901479439253527	-0.4197520959880674	0.0	1.315193645427681	-0.9947365730213267	0.0	1.6928243752465177	-0.8707561365375934	0.0	1.706730949731715	-0.43164584060573963	0.0
2	0.06730158730158729	0.8413594664917604	-1.0887052576859826	0.0	0.731868670075612	-1.045326036628887	0.0	1.644479352494466	-0.8959019661785993	0.0	1.5437197265624998	-1.0645751953125	0.0	1.157537109375	-0.19354101562500006	0.0	1.1474882812499998	-0.213638671875	0.0			0.0	1.216956984736545	-1.0305917871335089	0.0	1.0738077199758878	-2.4246453573226354	0.0	0.6785605468749917	-1.065060546874998	0.0			0.0	1.4646240234375	-0.6392470703125	0.0			0.0	0.9985375727938961	-0.9230333246716065	0.0	0.9755518706311863	-0.5549477969675242	0.0	0.9813596985239361	-0.7278274765633888	0.0	0.7151662896961555	-1.0262870661754042	0.0	0.35358158395521083	-0.8279314692724286	0.0	0.35755185903583725	-0.3715339404691421	0.0	1.308641785321245	-0.9926746959929235	0.0	1.6772518949165922	-0.8350011127232542	0.0	1.6358414593159767	-0.4053044868472287	0.0
3	0.10095238095238093	0.8553363343861867	-1.0854810486255753	0.0	0.7318765005408496	-1.0453294529330308	0.0	1.644029284803793	-0.8959300858648688	0.0	1.5437197265624996	-1.0645751953125002	0.0	1.157537109375	-0.19354101562500006	0.0	1.1474882812499998	-0.213638671875	0.0			0.0	1.217035353304968	-1.0306327434333111	0.0	1.1308810283176742	-2.239173618640082	0.0	0.6785605468749779	-1.0650605468749956	0.0			0.0	1.4646240234375	-0.6392470703125	0.0			0.0	0.9923074135661027	-0.9229543257642653	0.0	0.9695761025482884	-0.5516431721488176	0.0	0.9772976818314592	-0.7275005563559492	0.0	0.7075547103835821	-1.0294788526195442	0.0	0.3780124660963665	-0.7892225807363263	0.0	0.4336471816098427	-0.32754939268934496	0.0	1.3015432385735541	-0.9914896789990667	0.0	1.6618539569841355	-0.7992670582413637	0.0	1.5643672046890784	-0.39023377455241365	0.0
4	0.13460317460317459	0.8693036045013441	-1.082261154151548	0.0	0.731895765442017	-1.045310689963251	0.0	1.643852444421415	-0.8959411346386189	0.0	1.5437197265624993	-1.0645751953125004	0.0	1.157537109375	-0.19354101562500006	0.0	1.1474882812499998	-0.213638671875	0.0			0.0	1.2170859175887814	-1.030710301349841	0.0	1.1884468077209083	-2.051532353719526	0.0	0.6785605468749593	-1.0650605468749923	0.0			0.0	1.4646240234375	-0.6392470703125	0.0			0.0	0.9843302430447468	-0.9237822239660106	0.0	0.9618063395275781	-0.5456232270371237	0.0	0.9706642214649172	-0.7265622438976403	0.0	0.6998509018937166	-1.0333674564575412	0.0	0.40707207421095	-0.757865128139396	0.0	0.519596816301241	-0.28961752881281705	0.0	1.2943056602566245	-0.9906201569381322	0.0	1.6480251819879355	-0.7654072164091894	0.0	1.496085832096152	-0.3923049202409179	0.0
5	0.16825396825396824	0.883327768437535	-1.079017097617747	0.0	0.7319301377439784	-1.045250462452295	0.0	1.6444530781948719	-0.8959036077652552	0.0	1.5437197265624991	-1.0645751953125007	0.0	1.157537109375	-0.19354101562500006	0.0	1.1474882812499998	-0.213638671875	0.0			0.0	1.217036076265505	-1.0308258311511524	0.0	1.2468906877052264	-1.861192562141188	0.0	0.6785605468749407	-1.0650605468749894	0.0			0.0	1.4646240234375	-0.6392470703125	0.0			0.0	0.9743041182684586	-0.9254441263876594	0.0	0.9523704375614848	-0.5373444210167475	0.0	0.9616353111168687	-0.7253225958723136	0.0	0.6913633582506186	-1.0373269122084305	0.0	0.43696634962696346	-0.7357626869780952	0.0	0.6138015621025186	-0.2607646237828798	0.0	1.2875593192359847	-0.9892122262407901	0.0	1.6379606990666729	-0.7357227913896257	0.0	1.4369332815883498	-0.41635068357821303	0.0
6	0.20190476190476186	0.8975242277478254	-1.075697659167854	0.0	0.7319786403900301	-1.045129155022308	0.0	1.6465445261897143	-0.8957729366182082	0.0	1.5437197265624991	-1.0645751953125007	0.0	1.157537109375	-0.19354101562500006	0.0	1.1474882812499998	-0.213638671875	0.0			0.0	1.216775583222273	-1.0309578325631685	0.0	1.306538513322637	-1.6687472428055665	0.0	0.6785605468749348	-1.0650605468749894	0.0			0.0	1.4646240234375	-0.6392470703125	0.0			0.0	0.9625010585291548	-0.9271213800725978	0.0	0.9417083232322608	-0.5273449545411565	0.0	0.9507475300617921	-0.7240334091100794	0.0	0.6813405638127561	-1.0403950512492848	0.0	0.46184733501132325	-0.7244457454667548	0.0	0.7122807726818959	-0.24597124933527084	0.0	1.2816367820211774	-0.9865336211610506	0.0	1.633937881135528	-0.7124014566789855	0.0	1.393485797486195	-0.46501671136539957	0.0
7	0.23555555555555552	0.9120624902291794	-1.0722274356212929	0.0	0.7320296704172743	-1.0449391738868337	0.0	1.6508803875695608	-0.8955020372310173	0.0	1.5437197265624993	-1.0645751953125004	0.0	1.157537109375	-0.19354101562500006	0.0	1.1474882812499998	-0.213638671875	0.0			0.0	1.21617505951469	-1.0310434553880166	0.0	1.3674031030844394	-1.4769756642390024	0.0	0.6785605468749635	-1.0650605468749963	0.0			0.0	1.4646240234375	-0.6392470703125	0.0			0.0	0.9496441765146375	-0.927530607184173	0.0	0.9304198918528499	-0.5157968189168924	0.0	0.9389943847884893	-0.7224632702036332	0.0	0.669081030703511	-1.0413468652140296	0.0	0.47535646508320917	-0.7248941308104402	0.0	0.8092920089380033	-0.25122210059331435	0.0	1.2757697114732787	-0.9817630138598457	0.0	1.6372788300490115	-0.697479229677667	0.0	1.3713827130920355	-0.5377224599846145	0.0
8	0.26920634920634917	0.927136208275569	-1.0685208275667761	0.0	0.7320534679998847	-1.0447070107746925	0.0	1.6578192100868383	-0.8950685079726822	0.0	1.5437197265625002	-1.0645751953124998	0.0	1.157537109375	-0.19354101562500006	0.0	1.1474882812499998	-0.213638671875	0.0			0.0	1.2151433439210184	-1.0309607614430325	0.0	1.4287462773174335	-1.2920861847709613	0.0	0.6785605468750568	-1.0650605468750154	0.0			0.0	1.4646240234375	-0.6392470703125	0.0			0.0	0.9365303111455628	-0.9249565182504071	0.0	0.9189313023610286	-0.5022577013253932	0.0	0.9278077360720833	-0.7198274552010914	0.0	0.6541861609049434	-1.0386569045786056	0.0	0.4722678872198602	-0.7371081013012389	0.0	0.8982587075333948	-0.28190221129892823	0.0	1.2680477151679497	-0.9734465145300408	0.0	1.6475648399759895	-0.6931517806968024	0.0	1.374223519544962	-0.629871292979262	0.0
9	0.3028571428571428	0.9428708062669916	-1.0645235186738373	0.0	0.7319957408631128	-1.0445244127046764	0.0	1.6665281818654525	-0.8945243819242304	0.0	1.543719726562502	-1.0645751953124984	0.0	1.157537109375	-0.19354101562500006	0.0	1.1474882812499998	-0.213638671875	0.0			0.0	1.213741442613419	-1.0305243765247718	0.0	1.4884925174822212	-1.1245378646196433	0.0	0.678560546875246	-1.0650605468750514	0.0			0.0	1.4646240234375	-0.6392470703125	0.0			0.0	0.9241226225532377	-0.9174643681000766	0.0	0.9076989206617343	-0.4854471719434894	0.0	0.9188766739814077	-0.7147933507217638	0.0	0.6370918254964013	-1.0306708307631547	0.0	0.44969780702581114	-0.759647215277366	0.0	0.9732432440592864	-0.34104292827487204	0.0	1.2571465834297464	-0.9598938761479092	0.0	1.6623743315567743	-0.7017932850684095	0.0	1.402597667920415	-0.7326748290329237	0.0
10	0.3365079365079365	0.959142689255676	-1.060292886161238	0.0	0.73177825484847	-1.0445812368023046	0.0	1.6738328106187215	-0.8940679975331859	0.0	1.543719726562505	-1.0645751953124962	0.0	1.157537109375	-0.19354101562500006	0.0	1.1474882812499998	-0.213638671875	0.0			0.0	1.2123591072008837	-1.0295164213470078	0.0	1.5426761496737451	-0.9882734862567352	0.0	0.6785605468755436	-1.0650605468751047	0.0			0.0	1.4646240234375	-0.6392470703125	0.0			0.0	0.9139268231019949	-0.9034903443391775	0.0	0.8981562061505997	-0.46363912425364134	0.0	0.913805683356194	-0.7054873427716909	0.0	0.6197068117873634	-1.0160564737813291	0.0	0.40780300535018194	-0.7894467376010192	0.0	1.0300042638570397	-0.42781906188236024	0.0	1.2443137225875267	-0.9409266575504747	0.0	1.6775938960848447	-0.7250893997711277	0.0	1.4529418343164946	-0.833984718550737	0.0
11	0.37015873015873013	0.9753038551367503	-1.0561198311144562	0.0	0.73131591376641	-1.0451809120623357	0.0	1.6729609062050868	-0.89412247306799	0.0	1.5437197265625084	-1.0645751953124931	0.0	1.157537109375	-0.19354101562500006	0.0	1.1474882812499998	-0.213638671875	0.0			0.0	1.2119277108164699	-1.0277826872707387	0.0	1.585336847990692	-0.8965870131380536	0.0	0.678560546875909	-1.0650605468751653	0.0			0.0	1.4646240234375	-0.6392470703125	0.0			0.0	0.907587477046527	-0.8825744318536963	0.0	0.8929045372874121	-0.435991169480778	0.0	0.9136282168490386	-0.6901341414211085	0.0	0.6051195554626182	-0.9942529449018803	0.0	0.35027199541640847	-0.8221438065039676	0.0	1.0657988592867316	-0.5370488621528705	0.0	1.2329190569489503	-0.9188984018195163	0.0	1.6884721031853394	-0.7626531068370495	0.0	1.5170241181050748	-0.9208027026269565	0.0
12	0.40380952380952373	0.9898579923045626	-1.0526711661117298	0.0	0.7305626201040087	-1.0467036606062896	0.0	1.6528514915700263	-0.8953788850285614	0.0	1.543719726562511	-1.0645751953124898	0.0	1.157537109375	-0.19354101562500006	0.0	1.1474882812499998	-0.213638671875	0.0			0.0	1.2140819121577084	-1.0254240019543759	0.0	1.609673250162538	-0.8550373035587632	0.0	0.6785605468762003	-1.0650605468752041	0.0			0.0	1.4646240234375	-0.6392470703125	0.0			0.0	0.9058250973724659	-0.8561054810381318	0.0	0.8944747045745043	-0.4031157524215256	0.0	0.9186240127263088	-0.6683301554026376	0.0	0.5956939432845921	-0.9657173939460333	0.0	0.2845290099178875	-0.8527912994405172	0.0	1.0785954686064938	-0.659514860001671	0.0	1.2260628436090608	-0.8969671700900604	0.0	1.6911874820249713	-0.8112370692403483	0.0	1.582656042503617	-0.9840228499011088	0.0
13	0.4374603174603174	1.000931952945577	-1.0510840870290858	0.0	0.7295968804155236	-1.0494672076498102	0.0	1.5992839556551643	-0.8987257200351574	0.0	1.5437197265625102	-1.0645751953124885	0.0	1.157537109375	-0.19354101562500006	0.0	1.1474882812499998	-0.213638671875	0.0			0.0	1.2210915907280915	-1.0230931067824618	0.0	1.6109075397039843	-0.8570571545502506	0.0	0.6785605468761212	-1.0650605468751648	0.0			0.0	1.4646240234375	-0.6392470703125	0.0			0.0	0.9084145890124311	-0.8271024193909586	0.0	0.9043755741052466	-0.3659255918120909	0.0	0.9288614276506609	-0.6412074241700869	0.0	0.5915305790148105	-0.9320779721392918	0.0	0.2207158998411706	-0.8767812483417464	0.0	1.0663984616069593	-0.7827905147708762	0.0	1.225535979395106	-0.8765187674231855	0.0	1.6841805957220155	-0.8651806707458936	0.0	1.636188552190326	-1.0226809277205717	0.0
